<svg xmlns="http://www.w3.org/2000/svg" viewBox="0 0 116 116" width="116" height="116">
	<style>
		tspan { white-space:pre }
		.shp0 { fill: #000000 } 
	</style>
	<g id="Layer" style="opacity: 0.149">
		<path id="Layer" class="shp0" d="M104.24 47.76C103.69 47.2 103.02 46.76 102.3 46.46C101.57 46.16 100.79 46 100 46C99.21 46 98.43 46.16 97.7 46.46C96.98 46.76 96.31 47.2 95.76 47.76L93.15 50.37C92.28 46.38 90.74 42.58 88.6 39.11C86.46 35.64 83.74 32.55 80.57 29.99C77.4 27.43 73.81 25.43 69.97 24.07C66.12 22.71 62.08 22.01 58 22C56.06 22 54.13 22.16 52.21 22.48C50.3 22.8 48.42 23.27 46.58 23.9C44.75 24.52 42.97 25.29 41.26 26.21C39.55 27.12 37.92 28.18 36.38 29.36C35.11 30.32 34.28 31.74 34.06 33.32C33.84 34.9 34.26 36.49 35.22 37.76C36.18 39.03 37.6 39.86 39.18 40.08C40.76 40.3 42.35 39.88 43.62 38.92C44.64 38.13 45.73 37.43 46.86 36.82C48 36.21 49.18 35.69 50.4 35.28C51.63 34.86 52.88 34.54 54.15 34.33C55.42 34.11 56.71 34 58 34C60.5 34.01 62.98 34.41 65.36 35.19C67.74 35.96 69.98 37.11 72 38.58C74.02 40.05 75.8 41.82 77.27 43.84C78.74 45.86 79.89 48.1 80.67 50.48L76.7 47.31C75.46 46.32 73.87 45.86 72.29 46.04C70.71 46.21 69.26 47.01 68.27 48.26C67.28 49.5 66.82 51.09 67 52.67C67.18 54.25 67.98 55.7 69.23 56.69L84.26 68.69C84.83 69.14 85.48 69.49 86.18 69.72C86.88 69.94 87.61 70.03 88.34 69.99C89.07 69.95 89.78 69.78 90.45 69.48C91.12 69.18 91.72 68.76 92.24 68.24L104.24 56.24C104.8 55.69 105.24 55.02 105.54 54.3C105.84 53.57 106 52.79 106 52C106 51.21 105.84 50.43 105.54 49.7C105.24 48.98 104.8 48.31 104.24 47.76Z" />
		<path id="Layer" class="shp0" d="M72.38 77.08C71.36 77.87 70.27 78.57 69.14 79.18C68 79.79 66.82 80.31 65.6 80.72C64.37 81.14 63.12 81.46 61.85 81.67C60.58 81.89 59.29 82 58 82C55.5 81.99 53.02 81.59 50.64 80.81C48.26 80.04 46.02 78.89 44 77.42C41.98 75.95 40.2 74.18 38.73 72.16C37.26 70.14 36.11 67.9 35.33 65.52L39.3 68.69C40.54 69.68 42.13 70.14 43.71 69.96C45.29 69.79 46.74 68.99 47.73 67.74C48.72 66.5 49.18 64.91 49 63.33C48.82 61.75 48.02 60.3 46.77 59.31L31.74 47.31C31.17 46.86 30.52 46.51 29.82 46.29C29.12 46.07 28.39 45.97 27.66 46.02C26.93 46.06 26.22 46.23 25.55 46.53C24.88 46.83 24.28 47.24 23.76 47.76L11.76 59.76C10.64 60.88 10.01 62.41 10.01 64C10.02 65.58 10.65 67.11 11.77 68.23C12.89 69.35 14.42 69.99 16 69.99C17.59 69.99 19.12 69.36 20.24 68.24L22.85 65.63C23.72 69.62 25.26 73.42 27.4 76.89C29.54 80.36 32.26 83.45 35.43 86.01C38.6 88.57 42.19 90.57 46.03 91.93C49.88 93.29 53.92 93.99 58 94C59.94 94 61.87 93.84 63.79 93.52C65.7 93.2 67.58 92.73 69.42 92.1C71.25 91.48 73.03 90.71 74.74 89.79C76.45 88.88 78.08 87.82 79.62 86.64C80.89 85.68 81.72 84.26 81.94 82.68C82.16 81.1 81.74 79.51 80.78 78.24C79.82 76.97 78.4 76.14 76.82 75.92C75.24 75.7 73.65 76.12 72.38 77.08L72.38 77.08Z" />
	</g>
</svg>